<svg xmlns="http://www.w3.org/2000/svg" fill="none" style="fill: none;" viewBox="0 0 1156 591" original_string_length="7836"><path d="M182.744 0H589.854C588.064 0 586.734 0.0596875 585.384 0.179688C569.514 1.61969 553.784 10.2699 538.614 25.8799C520.304 44.7399 502.134 74.3998 484.614 114.05C452.914 185.79 422.364 292.26 393.404 431.67C384.12 476.419 359.7 516.603 324.255 545.454C288.81 574.305 244.507 590.062 198.804 590.07V590.07C70.4642 590.07 -24.1456 470.25 5.45439 345.37C28.6444 247.57 52.7442 170.18 77.5442 114.05C95.0642 74.3998 113.234 44.7399 131.544 25.8799C146.704 10.2699 162.434 1.61969 178.304 0.179688C179.624 0.0696875 180.954 0 182.744 0Z" style="fill: url(&quot;#__id655_s5ycycve3n&quot;);"/><path d="M177.964 0H586.337C587.157 0 587.967 0.0819795 588.787 0.133292C590.077 0.215392 591.378 0.318117 592.668 0.492579C593.498 0.605466 594.328 0.759563 595.158 0.9135C596.429 1.14954 597.709 1.41592 598.979 1.74432C599.839 1.95983 600.69 2.21685 601.55 2.47342C602.78 2.84287 604.02 3.28389 605.25 3.7457C606.121 4.0741 606.981 4.41276 607.851 4.77195C609.101 5.3056 610.351 5.91104 611.602 6.52679C612.462 6.95782 613.322 7.37886 614.172 7.84067C615.442 8.53852 616.713 9.3079 617.983 10.0981C618.823 10.6215 619.653 11.1246 620.494 11.6686C621.934 12.623 623.364 13.721 624.814 14.7473C625.465 15.2399 626.115 15.6808 626.815 16.194C628.935 17.8565 631.066 19.6321 633.196 21.5512C649.049 35.8468 664.992 57.049 681.956 86.3792C713.472 140.852 743.968 216.271 773.444 289.186C803.72 364.102 835.017 441.481 868.053 498.325C885.837 528.918 902.64 551.156 919.414 566.324C921.687 568.377 923.955 570.292 926.215 572.071C927.025 572.718 927.836 573.262 928.646 573.867C930.096 574.955 931.556 576.043 932.996 577.028C933.997 577.664 934.887 578.208 935.827 578.793C937.127 579.604 938.438 580.425 939.738 581.154C940.738 581.728 941.738 582.18 942.798 582.724C944.029 583.339 945.259 583.965 946.489 584.499C947.489 584.94 948.49 585.32 949.49 585.71C950.75 586.192 952 586.664 953.261 587.065C954.261 587.383 955.261 587.64 956.261 587.906C957.521 588.235 958.782 588.553 960.042 588.809C961.042 589.015 962.042 589.169 963.043 589.322C964.293 589.507 965.533 589.651 966.783 589.763C967.783 589.846 968.844 589.908 969.874 589.938C971.204 589.938 972.184 590 972.964 590H565.813C565.032 590 564.052 590 562.722 589.938C561.722 589.938 560.661 589.846 559.631 589.763C558.381 589.651 557.141 589.507 555.89 589.322C554.89 589.169 553.89 589.015 552.89 588.809C551.63 588.553 550.369 588.235 549.109 587.906C548.109 587.64 547.109 587.383 546.108 587.065C544.848 586.664 543.598 586.192 542.338 585.71C541.337 585.32 540.337 584.94 539.337 584.499C538.107 583.965 536.877 583.339 535.646 582.724C534.646 582.21 533.646 581.698 532.586 581.154C531.285 580.425 529.975 579.604 528.675 578.793C527.735 578.208 526.795 577.664 525.844 577.028C524.404 576.002 522.944 574.975 521.494 573.867C520.683 573.262 519.873 572.718 519.063 572.071C516.803 570.286 514.536 568.37 512.262 566.324C495.488 551.156 478.685 528.918 460.901 498.325C427.895 441.481 396.568 364.072 366.292 289.186C336.806 216.271 306.28 140.852 274.804 86.3792C257.8 57.049 241.897 35.8468 226.044 21.5512C223.914 19.6321 221.783 17.8565 219.663 16.194C219.003 15.6808 218.353 15.2399 217.662 14.7473C216.212 13.6697 214.782 12.5922 213.341 11.6686C212.501 11.1041 211.671 10.642 210.831 10.0981C209.561 9.3079 208.29 8.53852 207.03 7.84067C206.17 7.37886 205.31 6.95782 204.45 6.52679C203.2 5.91104 201.949 5.3056 200.699 4.77195C199.829 4.4025 198.969 4.06384 198.098 3.7457C196.868 3.28389 195.628 2.84287 194.398 2.47342C193.538 2.21685 192.687 1.95983 191.827 1.74432C190.557 1.41592 189.277 1.14954 188.006 0.9135C187.176 0.759563 186.346 0.605466 185.516 0.492579C184.226 0.318117 182.925 0.215392 181.635 0.133292C180.815 0.0819795 180.005 0.0102625 179.185 0H177.964Z" style="fill: url(&quot;#__id656_s5ycycve3n&quot;);"/><path d="M971.419 590H564.964C565.783 590 566.602 590 567.431 589.924C638.813 585.326 706.49 442.303 768.696 164.029C779.17 117.231 803.658 75.6369 838.244 45.8997C872.829 16.1625 915.513 0.000663352 959.467 0V0C1090.52 0 1184.69 137.977 1147.95 275.844C1093.38 480.658 1034.99 586.027 973.885 590C973.056 590 972.238 590 971.419 590Z" style="fill: url(&quot;#__id657_s5ycycve3n&quot;);"/><path d="M142.964 14.9316C154.308 6.18066 165.898 1.22656 177.564 0.167969C178.559 0.0849609 179.561 0.0244141 180.761 0C180.849 0.00390625 180.938 0.0078125 181.026 0.0126953C181.339 0.0292969 181.651 0.0517578 181.964 0.0742188C182.188 0.0908203 182.413 0.107422 182.639 0.121094C183.929 0.204102 185.229 0.306641 186.52 0.480469C187.347 0.59375 188.174 0.74707 189 0.900391L189.01 0.901367C190.28 1.1377 191.561 1.4043 192.831 1.73242C193.606 1.92676 194.372 2.15527 195.145 2.38574L195.217 2.40625L195.402 2.46191C196.632 2.83105 197.872 3.27246 199.102 3.73438C199.41 3.85059 199.716 3.96777 200.022 4.08691C200.582 4.30469 201.14 4.52832 201.703 4.75977C202.953 5.29395 204.203 5.89941 205.453 6.51465L205.917 6.74609C206.622 7.09863 207.326 7.4502 208.024 7.8291C209.294 8.52637 210.565 9.2959 211.835 10.0859L212.561 10.5371C212.876 10.7314 213.191 10.9258 213.506 11.123C213.785 11.2988 214.065 11.4756 214.345 11.6572C215.261 12.2637 216.173 12.9287 217.089 13.5967C217.613 13.9785 218.138 14.3623 218.666 14.7354C219.033 15.0127 219.399 15.2744 219.774 15.54L219.818 15.5723C220.094 15.7686 220.376 15.9697 220.667 16.1826C222.787 17.8447 224.917 19.6201 227.048 21.5391C242.901 35.835 258.844 57.0371 275.808 86.3672C307.324 140.841 337.82 216.26 367.296 289.175C379.388 319.097 391.644 349.411 404.107 378.653C400.266 395.756 396.451 413.425 392.664 431.658C389.147 448.61 383.458 464.907 375.82 480.181C346.489 425.606 318.499 356.399 291.332 289.175C261.856 216.26 231.36 140.841 199.843 86.3672C182.88 57.0371 166.937 35.835 151.083 21.5391C148.953 19.6201 146.823 17.8447 144.702 16.1826C144.412 15.9697 144.13 15.7686 143.853 15.5723C143.553 15.3584 143.258 15.1484 142.964 14.9316Z" fill-opacity=".15" style="fill: rgb(0, 0, 0);"/><path clip-rule="evenodd" d="M728.893 181.245C723.1 189.758 717.84 198.729 713.169 208.101C626.593 381.921 552.598 494.234 491.964 544.204C498.865 552.807 505.697 560.151 512.524 566.324C514.797 568.37 517.065 570.285 519.325 572.071C520.135 572.718 520.945 573.262 521.755 573.867C522.395 574.355 523.036 574.828 523.677 575.292C524.16 575.642 524.643 575.986 525.124 576.329L526.106 577.028C527.056 577.664 527.997 578.208 528.937 578.793L529.13 578.913C530.366 579.685 531.611 580.461 532.848 581.153L535.908 582.724L536.295 582.917C537.396 583.469 538.498 584.021 539.599 584.499C540.443 584.872 541.287 585.2 542.131 585.528L542.187 585.549L542.599 585.71C543.087 585.896 543.573 586.082 544.059 586.262C544.829 586.547 545.598 586.819 546.37 587.064C547.233 587.339 548.096 587.568 548.958 587.797L549.371 587.906C550.631 588.234 551.891 588.553 553.152 588.81C553.777 588.938 554.403 589.046 555.029 589.146L555.372 589.201L556.152 589.322C557.403 589.507 558.643 589.65 559.893 589.764L560.161 589.784C561.106 589.861 562.07 589.938 562.984 589.938C564.076 589.989 564.932 589.998 565.635 590C566.318 589.998 567.002 589.987 567.693 589.924C632.648 585.74 694.536 466.933 752.025 235.895C744.381 217.341 736.67 198.994 728.893 181.245Z" fill-opacity=".15" fill-rule="evenodd" style="fill: rgb(0, 0, 0);"/><defs><linearGradient gradientUnits="userSpaceOnUse" id="__id655_s5ycycve3n" x1="294.927" x2="114.464" y1="0" y2="545"><stop style="stop-color: rgb(255, 49, 49);"/><stop offset="1" style="stop-color: rgb(140, 82, 255);"/></linearGradient><linearGradient gradientUnits="userSpaceOnUse" id="__id656_s5ycycve3n" x1="662.964" x2="380.111" y1="612.5" y2="63.157"><stop style="stop-color: rgb(255, 49, 49);"/><stop offset="1" style="stop-color: rgb(140, 82, 255);"/></linearGradient><linearGradient gradientUnits="userSpaceOnUse" id="__id657_s5ycycve3n" x1="673.964" x2="905.979" y1="835" y2="33.215"><stop offset=".007" style="stop-color: rgb(255, 49, 49);"/><stop offset="1" style="stop-color: rgb(140, 82, 255);"/></linearGradient></defs></svg>